<svg xmlns="http://www.w3.org/2000/svg" viewBox="0 0 306.06 92.44"><g id="Layer_2" data-name="Layer 2"><g id="Layer_1-2" data-name="Layer 1"><path d="M44.1,4.24a44.1,44.1,0,1,0,44.1,44.1A44.15,44.15,0,0,0,44.1,4.24Zm15.12,79.9A38.85,38.85,0,0,1,16.63,20.87,38.85,38.85,0,1,1,59.22,84.14Z" style="fill:#fff"/><circle cx="43.99" cy="5.78" r="5.78" style="fill:#fff"/><circle cx="75.3" cy="75.91" r="5.78" style="fill:#fff"/><circle cx="11.35" cy="74.26" r="5.78" style="fill:#fff"/><path d="M74.45,47.89a31,31,0,0,1-17.67,28,66.1,66.1,0,0,0,4.34-12.63,24.46,24.46,0,0,0-1.91-17.18,26.48,26.48,0,0,0-6-7.63C47.85,33.65,41.51,30.54,35,27.72a41.21,41.21,0,0,0-4.09-1.43,1.16,1.16,0,0,0-1,.08c-.93,1-1.77,2-2.78,3.18,1.3.61,2.37,1.05,3.4,1.59A75.86,75.86,0,0,1,48.3,43.36c5.89,5.65,7.31,12.4,4.82,20.15a70.9,70.9,0,0,1-7.27,15.24l-.35,0c-.63,0-1.27.06-1.9.06a30.69,30.69,0,0,1-21.46-8.71,47.06,47.06,0,0,0,9.68-13.25c2.22-4.42,3.37-9.1,2.29-14.09-.87-4.05-2.85-7.27-6.87-8.84-1-.37-2.09-1-3,.23-1.35,1.86-1.31,2.77-.2,4.19A11.75,11.75,0,0,1,26.3,48.48c-1.36,6-5.34,10.43-9.51,14.74a30.7,30.7,0,0,1-4-13.43h0c0-.63-.06-1.26-.06-1.9a31,31,0,0,1,1.57-9.77h0A30.82,30.82,0,0,1,66.07,26.69,30.88,30.88,0,0,1,74.45,47.89Z" style="fill:#fff"/><path d="M127.78,54.34l-1.22-6.68h-7l-1.12,6.68h-5.86L119,22.18h7.9l6.78,32.16Zm-7.49-11.11h5.46l-2.81-15.39Z" style="fill:#fff"/><path d="M166,22.18v4.48h-5.65V54.34h-5.86V26.66h-5.61V22.18Z" style="fill:#fff"/><path d="M195.71,22.18h5.86V54.34h-5.86V40.63h-6.62V54.34h-5.86V22.18h5.86v14h6.62Z" style="fill:#fff"/><path d="M221.3,22.18h5.86V54.34H221.3Z" style="fill:#fff"/><path d="M252.23,22.18h6.22q5.55,0,5.55,5.05V49.29c0,3.36-1.85,5.05-5.55,5.05h-6.22c-3.7,0-5.56-1.69-5.56-5.05V27.23C246.67,23.86,248.53,22.18,252.23,22.18Zm5.91,26.3V28a1.48,1.48,0,0,0-.31-1.1,1.7,1.7,0,0,0-1.12-.28H254a1.81,1.81,0,0,0-1.17.28,1.52,1.52,0,0,0-.31,1.1V48.48a1.48,1.48,0,0,0,.31,1.09,1.75,1.75,0,0,0,1.17.28h2.7a1.64,1.64,0,0,0,1.12-.28A1.43,1.43,0,0,0,258.14,48.48Z" style="fill:#fff"/><path d="M293.46,48.48V41.6a1.5,1.5,0,0,0-.31-1.1,1.66,1.66,0,0,0-1.12-.28H287.9q-5.25,0-5.25-5.1V27.23q0-5.06,5.51-5.05h5.6q5.5,0,5.5,5.05v4.48h-5.91V28a1.52,1.52,0,0,0-.3-1.1,1.74,1.74,0,0,0-1.12-.28H290a1.81,1.81,0,0,0-1.17.28,1.48,1.48,0,0,0-.31,1.1v6.47a1.46,1.46,0,0,0,.31,1.1,1.75,1.75,0,0,0,1.17.28h4c3.56,0,5.35,1.66,5.35,5v8.41c0,3.36-1.86,5.05-5.56,5.05h-5.5c-3.71,0-5.56-1.69-5.56-5.05V44.86h5.86v3.62a1.48,1.48,0,0,0,.31,1.09,1.75,1.75,0,0,0,1.17.28H292a1.66,1.66,0,0,0,1.12-.28A1.48,1.48,0,0,0,293.46,48.48Z" style="fill:#fff"/><path d="M117.67,74.83l-2.15-3.7h-1.43v3.7h-1.18v-9h2.92a3.92,3.92,0,0,1,1.73.35,2.41,2.41,0,0,1,1.06,1,2.58,2.58,0,0,1,.35,1.36,2.64,2.64,0,0,1-.54,1.65,2.59,2.59,0,0,1-1.61,1l2.27,3.79Zm-3.58-4.65h1.74a2,2,0,0,0,1.44-.47,1.71,1.71,0,0,0,.48-1.27,1.63,1.63,0,0,0-.47-1.24,2,2,0,0,0-1.45-.45h-1.74Z" style="fill:#fff"/><path d="M123,74.49a3.18,3.18,0,0,1-1.28-1.29,4,4,0,0,1-.46-1.94,3.81,3.81,0,0,1,.48-1.93A3.18,3.18,0,0,1,123,68.05a3.7,3.7,0,0,1,1.83-.45,3.76,3.76,0,0,1,1.83.45A3.24,3.24,0,0,1,128,69.33a3.76,3.76,0,0,1,.48,1.93A3.83,3.83,0,0,1,128,73.2a3.41,3.41,0,0,1-1.32,1.29,3.7,3.7,0,0,1-1.84.46A3.56,3.56,0,0,1,123,74.49Zm3-.88a2.33,2.33,0,0,0,.9-.89,2.89,2.89,0,0,0,.35-1.46,2.83,2.83,0,0,0-.34-1.45,2.16,2.16,0,0,0-.88-.89,2.44,2.44,0,0,0-1.18-.3,2.39,2.39,0,0,0-1.19.3,2.14,2.14,0,0,0-.87.89,3,3,0,0,0-.32,1.45,3,3,0,0,0,.32,1.47,2.09,2.09,0,0,0,.85.89,2.42,2.42,0,0,0,1.17.29A2.47,2.47,0,0,0,126,73.61Z" style="fill:#fff"/><path d="M137.24,67.72v7.11h-1.18v-1a2.28,2.28,0,0,1-.94.85,3,3,0,0,1-1.33.31,3.18,3.18,0,0,1-1.49-.35,2.48,2.48,0,0,1-1.05-1,3.48,3.48,0,0,1-.38-1.68V67.72H132v4a2.26,2.26,0,0,0,.53,1.62,1.91,1.91,0,0,0,1.45.56,2,2,0,0,0,1.5-.58,2.44,2.44,0,0,0,.54-1.71v-3.9Z" style="fill:#fff"/><path d="M141.59,68.69v4.19a1,1,0,0,0,.23.74,1.08,1.08,0,0,0,.76.21h.87v1h-1.06a2.13,2.13,0,0,1-1.48-.45,2,2,0,0,1-.5-1.5V68.69h-.92v-1h.92v-1.8h1.18v1.8h1.86v1Z" style="fill:#fff"/><path d="M145.83,66.33a.81.81,0,0,1,0-1.15.78.78,0,0,1,.57-.23.75.75,0,0,1,.55.23.83.83,0,0,1,0,1.15.75.75,0,0,1-.55.23A.78.78,0,0,1,145.83,66.33ZM147,67.72v7.11h-1.18V67.72Z" style="fill:#fff"/><path d="M155.46,68.37a3,3,0,0,1,.81,2.27v4.19H155.1v-4a2.3,2.3,0,0,0-.53-1.63,1.91,1.91,0,0,0-1.46-.57,1.93,1.93,0,0,0-1.48.59,2.37,2.37,0,0,0-.56,1.7v3.93h-1.18V67.72h1.18v1a2.39,2.39,0,0,1,1-.85,3.05,3.05,0,0,1,1.33-.29A2.89,2.89,0,0,1,155.46,68.37Z" style="fill:#fff"/><path d="M163.66,68a2.73,2.73,0,0,1,1,1V67.72h1.19V75a3.52,3.52,0,0,1-.42,1.73,2.94,2.94,0,0,1-1.18,1.19,3.63,3.63,0,0,1-1.8.43,3.94,3.94,0,0,1-2.34-.66,2.62,2.62,0,0,1-1.1-1.81h1.17a1.88,1.88,0,0,0,.8,1,2.69,2.69,0,0,0,1.47.39,2.15,2.15,0,0,0,1.59-.61A2.31,2.31,0,0,0,164.7,75v-1.5a2.8,2.8,0,0,1-1,1,3,3,0,0,1-1.61.42,3.24,3.24,0,0,1-1.72-.47,3.28,3.28,0,0,1-1.22-1.31,4.12,4.12,0,0,1-.44-1.92,4.06,4.06,0,0,1,.44-1.92,3.27,3.27,0,0,1,1.22-1.28,3.32,3.32,0,0,1,1.72-.45A3.13,3.13,0,0,1,163.66,68Zm.71,1.86a2.33,2.33,0,0,0-2.09-1.24,2.4,2.4,0,0,0-1.21.32,2.25,2.25,0,0,0-.87.91,2.92,2.92,0,0,0-.32,1.4,3,3,0,0,0,.32,1.42,2.34,2.34,0,0,0,.87.92,2.4,2.4,0,0,0,1.21.32,2.38,2.38,0,0,0,1.21-.32,2.3,2.3,0,0,0,.88-.92,2.88,2.88,0,0,0,.33-1.41A2.84,2.84,0,0,0,164.37,69.86Z" style="fill:#fff"/><path d="M174.44,74.6a2.64,2.64,0,0,1-1.11-.88,2.16,2.16,0,0,1-.41-1.3h1.26a1.63,1.63,0,0,0,.52,1.07,1.9,1.9,0,0,0,1.35.43,2,2,0,0,0,1.33-.42,1.37,1.37,0,0,0,.48-1.08,1.25,1.25,0,0,0-.28-.85,1.84,1.84,0,0,0-.72-.49,11.73,11.73,0,0,0-1.15-.36,11.63,11.63,0,0,1-1.44-.47,2.33,2.33,0,0,1-.92-.74,2.18,2.18,0,0,1-.38-1.34,2.33,2.33,0,0,1,.37-1.31A2.48,2.48,0,0,1,174.4,66a3.73,3.73,0,0,1,1.57-.32,3.29,3.29,0,0,1,2.08.64A2.36,2.36,0,0,1,179,68h-1.3a1.45,1.45,0,0,0-.55-.92,2,2,0,0,0-1.27-.39,1.83,1.83,0,0,0-1.21.38,1.31,1.31,0,0,0-.46,1.07,1.2,1.2,0,0,0,.27.81,2,2,0,0,0,.69.47c.28.11.66.23,1.15.37a9.87,9.87,0,0,1,1.44.49,2.32,2.32,0,0,1,.94.74,2.13,2.13,0,0,1,.39,1.35,2.41,2.41,0,0,1-.35,1.25,2.6,2.6,0,0,1-1,1,3.46,3.46,0,0,1-1.62.36A3.76,3.76,0,0,1,174.44,74.6Z" style="fill:#fff"/><path d="M183,74.49a3.16,3.16,0,0,1-1.27-1.29,3.92,3.92,0,0,1-.46-1.94,3.81,3.81,0,0,1,.47-1.93A3.31,3.31,0,0,1,183,68.05a3.76,3.76,0,0,1,1.83-.45,3.7,3.7,0,0,1,1.83.45,3.27,3.27,0,0,1,1.3,1.28,3.86,3.86,0,0,1,.47,1.93A3.73,3.73,0,0,1,188,73.2a3.28,3.28,0,0,1-1.32,1.29,3.67,3.67,0,0,1-1.84.46A3.56,3.56,0,0,1,183,74.49Zm3-.88a2.33,2.33,0,0,0,.9-.89,2.89,2.89,0,0,0,.34-1.46,2.83,2.83,0,0,0-.34-1.45,2.16,2.16,0,0,0-.88-.89,2.49,2.49,0,0,0-2.37,0,2.06,2.06,0,0,0-.86.89,2.93,2.93,0,0,0-.33,1.45,3.13,3.13,0,0,0,.32,1.47,2.15,2.15,0,0,0,.85.89,2.47,2.47,0,0,0,1.17.29A2.54,2.54,0,0,0,186,73.61Z" style="fill:#fff"/><path d="M192.11,65.22v9.61h-1.18V65.22Z" style="fill:#fff"/><path d="M201.34,67.72v7.11h-1.18v-1a2.34,2.34,0,0,1-.94.85,3,3,0,0,1-1.33.31,3.22,3.22,0,0,1-1.5-.35,2.46,2.46,0,0,1-1-1,3.37,3.37,0,0,1-.38-1.68V67.72h1.16v4a2.26,2.26,0,0,0,.54,1.62,2.18,2.18,0,0,0,2.94,0,2.39,2.39,0,0,0,.55-1.71v-3.9Z" style="fill:#fff"/><path d="M205.69,68.69v4.19a1,1,0,0,0,.22.74,1.11,1.11,0,0,0,.77.21h.87v1h-1.07a2.15,2.15,0,0,1-1.48-.45,2,2,0,0,1-.49-1.5V68.69h-.92v-1h.92v-1.8h1.18v1.8h1.86v1Z" style="fill:#fff"/><path d="M209.92,66.33A.81.81,0,0,1,210.5,65a.76.76,0,0,1,.55.23.83.83,0,0,1,0,1.15.76.76,0,0,1-.55.23A.82.82,0,0,1,209.92,66.33Zm1.15,1.39v7.11h-1.18V67.72Z" style="fill:#fff"/><path d="M215.28,74.49A3.22,3.22,0,0,1,214,73.2a4.26,4.26,0,0,1,0-3.87,3.31,3.31,0,0,1,1.29-1.28,4,4,0,0,1,3.67,0,3.31,3.31,0,0,1,1.29,1.28,3.86,3.86,0,0,1,.47,1.93,3.73,3.73,0,0,1-.49,1.94,3.32,3.32,0,0,1-1.31,1.29,3.73,3.73,0,0,1-1.85.46A3.58,3.58,0,0,1,215.28,74.49Zm3-.88a2.33,2.33,0,0,0,.9-.89,2.89,2.89,0,0,0,.34-1.46,2.93,2.93,0,0,0-.33-1.45,2.18,2.18,0,0,0-.89-.89,2.38,2.38,0,0,0-1.18-.3,2.42,2.42,0,0,0-1.19.3,2.11,2.11,0,0,0-.86.89,2.93,2.93,0,0,0-.32,1.45,3.13,3.13,0,0,0,.31,1.47,2.22,2.22,0,0,0,.85.89,2.53,2.53,0,0,0,2.37,0Z" style="fill:#fff"/><path d="M228.78,68.37a3,3,0,0,1,.81,2.27v4.19h-1.17v-4a2.26,2.26,0,0,0-.54-1.63,1.88,1.88,0,0,0-1.45-.57,2,2,0,0,0-1.49.59,2.37,2.37,0,0,0-.55,1.7v3.93h-1.18V67.72h1.18v1a2.27,2.27,0,0,1,1-.85,3.05,3.05,0,0,1,1.33-.29A2.9,2.9,0,0,1,228.78,68.37Z" style="fill:#fff"/><path d="M233.48,74.67a2.64,2.64,0,0,1-1-.78,2.11,2.11,0,0,1-.41-1.15h1.22a1.16,1.16,0,0,0,.5.87,1.88,1.88,0,0,0,1.18.34,1.69,1.69,0,0,0,1.06-.3.91.91,0,0,0,.39-.75.75.75,0,0,0-.42-.7,5.83,5.83,0,0,0-1.28-.45,7.52,7.52,0,0,1-1.29-.42,2.23,2.23,0,0,1-.86-.63,1.68,1.68,0,0,1-.36-1.11,1.64,1.64,0,0,1,.33-1,2,2,0,0,1,.92-.72,3.27,3.27,0,0,1,1.36-.27,2.89,2.89,0,0,1,1.91.6,2.1,2.1,0,0,1,.78,1.63H236.3a1.23,1.23,0,0,0-.45-.89,1.65,1.65,0,0,0-1.1-.34,1.7,1.7,0,0,0-1,.27.85.85,0,0,0-.38.72.78.78,0,0,0,.23.57,1.65,1.65,0,0,0,.57.37,9.58,9.58,0,0,0,1,.3,11.22,11.22,0,0,1,1.24.41,2.27,2.27,0,0,1,.83.61,1.58,1.58,0,0,1,.36,1.05,1.77,1.77,0,0,1-.33,1,2.14,2.14,0,0,1-.91.73A3.27,3.27,0,0,1,235,75,3.6,3.6,0,0,1,233.48,74.67Z" style="fill:#fff"/><path d="M246.74,68a3.14,3.14,0,0,1,1.6-.4,3.32,3.32,0,0,1,1.72.45,3.25,3.25,0,0,1,1.21,1.28,3.94,3.94,0,0,1,.44,1.92,4,4,0,0,1-.44,1.92,3.35,3.35,0,0,1-4.55,1.38,2.81,2.81,0,0,1-1.05-1v1.31h-1.18V65.22h1.18V69A2.89,2.89,0,0,1,246.74,68Zm3.44,1.85a2.21,2.21,0,0,0-.88-.91,2.36,2.36,0,0,0-3.29.92,3.07,3.07,0,0,0,0,2.81,2.3,2.3,0,0,0,.88.92,2.43,2.43,0,0,0,2.41,0,2.3,2.3,0,0,0,.88-.92,2.92,2.92,0,0,0,.33-1.42A2.81,2.81,0,0,0,250.18,69.85Z" style="fill:#fff"/><path d="M260.31,67.72,256,78.18H254.8l1.41-3.43-2.87-7h1.31l2.23,5.76,2.21-5.76Z" style="fill:#fff"/><path d="M272.35,65.78v1h-2.47v8.09H268.7V66.74h-2.48v-1Z" style="fill:#fff"/><path d="M281.16,71.72h-5.68A2.23,2.23,0,0,0,277.79,74a2.19,2.19,0,0,0,1.28-.36,1.9,1.9,0,0,0,.72-1h1.27a3.08,3.08,0,0,1-1.14,1.67,3.83,3.83,0,0,1-3.94.18,3.2,3.2,0,0,1-1.26-1.29,4,4,0,0,1-.45-1.94,4.07,4.07,0,0,1,.44-1.93A3.06,3.06,0,0,1,276,68.05a3.66,3.66,0,0,1,1.84-.45,3.62,3.62,0,0,1,1.79.44,3,3,0,0,1,1.2,1.21A3.62,3.62,0,0,1,281.2,71,6.13,6.13,0,0,1,281.16,71.72Zm-1.48-2.13a2,2,0,0,0-.81-.74,2.5,2.5,0,0,0-1.13-.25,2.2,2.2,0,0,0-1.53.57,2.32,2.32,0,0,0-.72,1.58H280A2.18,2.18,0,0,0,279.68,69.59Z" style="fill:#fff"/><path d="M283.67,69.33a3.16,3.16,0,0,1,1.23-1.28,3.54,3.54,0,0,1,1.8-.45,3.48,3.48,0,0,1,2.16.64A3,3,0,0,1,290,70h-1.27a1.82,1.82,0,0,0-.71-1,2.34,2.34,0,0,0-2.94.31,2.84,2.84,0,0,0-.62,2,2.88,2.88,0,0,0,.62,2,2.08,2.08,0,0,0,1.64.7,2.18,2.18,0,0,0,1.29-.36,1.86,1.86,0,0,0,.72-1H290a3.11,3.11,0,0,1-1.14,1.74,3.78,3.78,0,0,1-3.94.2,3.1,3.1,0,0,1-1.23-1.28,4.15,4.15,0,0,1-.44-1.95A4.07,4.07,0,0,1,283.67,69.33Z" style="fill:#fff"/><path d="M297.45,67.93a2.47,2.47,0,0,1,1,1,3.59,3.59,0,0,1,.37,1.68v4.19h-1.17v-4a2.3,2.3,0,0,0-.53-1.63,1.91,1.91,0,0,0-1.46-.57,1.93,1.93,0,0,0-1.48.59,2.37,2.37,0,0,0-.56,1.7v3.93h-1.18V65.22h1.18v3.51a2.36,2.36,0,0,1,1-.85,3.25,3.25,0,0,1,1.38-.29A3.05,3.05,0,0,1,297.45,67.93Z" style="fill:#fff"/><path d="M303.44,74.2a1.56,1.56,0,0,1,1.11-2.66,1.44,1.44,0,0,1,1.07.45,1.61,1.61,0,0,1,0,2.21,1.41,1.41,0,0,1-1.07.46A1.48,1.48,0,0,1,303.44,74.2Z" style="fill:#fff"/></g></g></svg>